<svg
  viewBox="0 0 64 64"
  xmlns="http://www.w3.org/2000/svg"
  width="0"
  height="0"
  fill="currentColor"
>
  <defs>
    <symbol id="aquarius" viewBox="0 0 64 64">
      <path
        d="M40 33.0933L32 25.0933L24 33.0933L16 25.0933L9.89333 31.2267L6.10666 27.44L16 17.5733L24 25.5733L32 17.5733L40 25.5733L48 17.5733L57.8933 27.44L54.1067 31.2267L48 25.0933L40 33.0933ZM48 41.0933L54.1067 47.2267L57.8933 43.44L48 33.5733L40 41.5733L32 33.5733L24 41.5733L16 33.5733L6.10666 43.44L9.89333 47.2267L16 41.0933L24 49.0933L32 41.0933L40 49.0933L48 41.0933Z"
      />
    </symbol>
    <symbol id="aries" viewBox="0 0 64 64">
      <path
        d="M42.6667 5.33334C39.8667 5.33334 37.0933 6.05334 34.6667 7.49334C33.7067 8.00001 32.8 8.69334 32 9.44001C31.2 8.69334 30.2933 8.00001 29.3333 7.49334C26.9067 6.05334 24.1333 5.33334 21.3333 5.33334C17.0899 5.33334 13.0202 7.01905 10.0196 10.0196C7.01904 13.0202 5.33333 17.0899 5.33333 21.3333C5.33333 25.5768 7.01904 29.6465 10.0196 32.6471C13.0202 35.6476 17.0899 37.3333 21.3333 37.3333V32C18.5044 32 15.7912 30.8762 13.7909 28.8758C11.7905 26.8754 10.6667 24.1623 10.6667 21.3333C10.6667 18.5044 11.7905 15.7913 13.7909 13.7909C15.7912 11.7905 18.5044 10.6667 21.3333 10.6667C22.847 10.6737 24.3421 11.0004 25.7208 11.6254C27.0994 12.2503 28.3305 13.1595 29.3333 14.2933V58.6667H34.6667V14.2933C34.88 14.0533 35.0933 13.8133 35.3333 13.6C36.35 12.6341 37.5472 11.8781 38.8564 11.3753C40.1656 10.8726 41.561 10.6329 42.9629 10.6701C44.3648 10.7072 45.7457 11.0205 47.0264 11.5918C48.3071 12.1632 49.4626 12.9816 50.4267 14C52.3713 16.0512 53.4216 18.7907 53.3466 21.6162C53.2716 24.4416 52.0774 27.1216 50.0267 29.0667C48 30.96 45.4133 32 42.6667 32V37.3333C46.9101 37.3333 50.9798 35.6476 53.9804 32.6471C56.981 29.6465 58.6667 25.5768 58.6667 21.3333C58.6667 17.0899 56.981 13.0202 53.9804 10.0196C50.9798 7.01905 46.9101 5.33334 42.6667 5.33334Z"
      />
    </symbol>
    <symbol id="cancer" viewBox="0 0 64 64">
      <path
        d="M32 10.6667C17.3333 10.6667 5.33334 20.2133 5.33334 32C5.33334 37.6533 9.73334 42.32 15.36 42.6667H16C18.829 42.6667 21.5421 41.5428 23.5425 39.5425C25.5429 37.5421 26.6667 34.829 26.6667 32C26.6667 29.171 25.5429 26.4579 23.5425 24.4575C21.5421 22.4571 18.829 21.3333 16 21.3333H15.36C19.8488 17.094 25.8274 14.7946 32 14.9333C36.72 14.88 41.3333 16.1867 45.3333 18.6667L48.6667 15.3333C43.6744 12.2098 37.8884 10.5897 32 10.6667ZM16 26.6667C17.4145 26.6667 18.7711 27.2286 19.7712 28.2288C20.7714 29.2289 21.3333 30.5855 21.3333 32C21.3333 34.96 18.88 37.3333 16 37.3333C14.6733 37.34 13.3917 36.8519 12.4055 35.9643C11.4193 35.0767 10.7993 33.8534 10.6667 32.5333V31.4667C10.7993 30.1465 11.4193 28.9232 12.4055 28.0357C13.3917 27.1481 14.6733 26.66 16 26.6667ZM48.64 21.3333H48C45.171 21.3333 42.4579 22.4571 40.4575 24.4575C38.4572 26.4579 37.3333 29.171 37.3333 32C37.3333 34.829 38.4572 37.5421 40.4575 39.5425C42.4579 41.5428 45.171 42.6667 48 42.6667H48.64C44.1513 46.9059 38.1726 49.2054 32 49.0667C27.28 49.12 22.6667 47.8133 18.6667 45.3333L15.36 48.64C20.3467 51.76 26.1067 53.3333 32 53.3333C46.6667 53.3333 58.6667 43.7867 58.6667 32C58.6667 26.3467 54.2667 21.68 48.64 21.3333ZM48 37.3333C46.5855 37.3333 45.229 36.7714 44.2288 35.7712C43.2286 34.771 42.6667 33.4145 42.6667 32C42.6667 29.04 45.12 26.6667 48 26.6667C49.3268 26.66 50.6084 27.1481 51.5945 28.0357C52.5807 28.9232 53.2007 30.1465 53.3333 31.4667V32.5333C53.2007 33.8534 52.5807 35.0767 51.5945 35.9643C50.6084 36.8519 49.3268 37.34 48 37.3333Z"
      />
    </symbol>
    <symbol id="capricorn" viewBox="0 0 64 64">
      <path
        d="M40 34.6667C38.1333 34.6667 36.2933 35.1733 34.6667 36.1333V16C34.6667 13.8783 33.8238 11.8434 32.3235 10.3431C30.8232 8.84286 28.7884 8 26.6667 8C24.6667 8 22.8 8.77333 21.3333 10.08C19.8667 8.74667 17.9733 8 16 8V13.3333C16.7072 13.3333 17.3855 13.6143 17.8856 14.1144C18.3857 14.6145 18.6667 15.2928 18.6667 16V42.6667H24V16C24 15.2928 24.281 14.6145 24.781 14.1144C25.2811 13.6143 25.9594 13.3333 26.6667 13.3333C27.3739 13.3333 28.0522 13.6143 28.5523 14.1144C29.0524 14.6145 29.3333 15.2928 29.3333 16V45.3333C29.3333 46.7478 28.7714 48.1044 27.7712 49.1046C26.771 50.1048 25.4145 50.6667 24 50.6667V56C27.0667 56 30 54.6667 32 52.32C32.9163 53.3812 34.0342 54.25 35.2887 54.8761C36.5432 55.5021 37.9095 55.873 39.3084 55.9673C40.7073 56.0615 42.111 55.8773 43.4382 55.4251C44.7653 54.973 45.9896 54.262 47.04 53.3333C51.4933 49.5467 52 42.8 48.1067 38.3467C47.0991 37.1869 45.8534 36.2579 44.4545 35.6229C43.0556 34.9879 41.5363 34.6617 40 34.6667ZM40 50.6667C38.5855 50.6667 37.229 50.1048 36.2288 49.1046C35.2286 48.1044 34.6667 46.7478 34.6667 45.3333C34.6667 43.9188 35.2286 42.5623 36.2288 41.5621C37.229 40.5619 38.5855 40 40 40C41.4145 40 42.771 40.5619 43.7712 41.5621C44.7714 42.5623 45.3333 43.9188 45.3333 45.3333C45.3333 46.7478 44.7714 48.1044 43.7712 49.1046C42.771 50.1048 41.4145 50.6667 40 50.6667Z"
      />
    </symbol>
    <symbol id="gemini" viewBox="0 0 64 64">
      <path
        d="M48 14.1333C51.6 13.2533 55.0934 12.1067 58.5067 10.6667L56.48 5.70667C48.7328 8.9684 40.4139 10.6553 32.0081 10.669C23.6023 10.6828 15.2778 9.02307 7.52001 5.78666L5.49335 10.6667C8.90668 12.1067 12.4 13.2533 16 14.1333V49.8667C12.4 50.7467 8.90668 51.8933 5.49335 53.3333L7.52001 58.2933C15.2794 55.0717 23.5984 53.4133 32 53.4133C40.4016 53.4133 48.7206 55.0717 56.48 58.2933L58.5067 53.3333C55.0934 51.8933 51.6 50.7467 48 49.8667V14.1333ZM21.3333 48.8V15.1733C24.8533 15.7067 28.4267 16 32 16C35.5733 16 39.1467 15.7067 42.6667 15.1733V48.8267C35.5975 47.7346 28.4025 47.7346 21.3333 48.8267V48.8Z"
      />
    </symbol>
    <symbol id="leo" viewBox="0 0 64 64">
      <path
        d="M53.3333 45.3333C53.3333 47.4551 52.4905 49.4899 50.9902 50.9902C49.4899 52.4905 47.4551 53.3333 45.3333 53.3333C43.2456 53.2283 41.2713 52.3517 39.7931 50.8736C38.315 49.3954 37.4384 47.4211 37.3333 45.3333C37.76 41.04 38.6667 36.8 40 32.6933C41.44 28.1333 42.32 23.44 42.6667 18.6667C42.575 15.1594 41.1408 11.821 38.6599 9.34013C36.179 6.85925 32.8406 5.42505 29.3333 5.33334C25.826 5.42505 22.4877 6.85925 20.0068 9.34013C17.5259 11.821 16.0917 15.1594 16 18.6667C16.4 22.7467 17.3333 26.7467 18.6667 30.6667L19.2267 32.5333C13.6 30.7467 7.62667 33.8667 5.84001 39.4667C4.00001 45.0933 7.14667 51.0933 12.7733 52.88C18.4 54.6667 24.3733 51.5467 26.16 45.92C26.5067 44.88 26.6667 43.76 26.6667 42.6667C26.24 38.0533 25.3333 33.4933 23.76 29.12C22.5794 25.7324 21.7659 22.2279 21.3333 18.6667C21.4384 16.5789 22.315 14.6046 23.7931 13.1265C25.2713 11.6483 27.2456 10.7718 29.3333 10.6667C33.6533 10.88 37.12 14.3467 37.3333 18.6667C36.8999 22.9634 36.0059 27.2011 34.6667 31.3067C33.2267 35.8667 32.3467 40.56 32 45.3333C32.0917 48.8406 33.5259 52.179 36.0068 54.6599C38.4877 57.1408 41.826 58.575 45.3333 58.6667C48.8696 58.6667 52.2609 57.2619 54.7614 54.7614C57.2619 52.261 58.6667 48.8696 58.6667 45.3333H53.3333ZM16 48C14.5855 48 13.229 47.4381 12.2288 46.4379C11.2286 45.4377 10.6667 44.0812 10.6667 42.6667C10.6667 41.2522 11.2286 39.8956 12.2288 38.8954C13.229 37.8952 14.5855 37.3333 16 37.3333C17.4145 37.3333 18.771 37.8952 19.7712 38.8954C20.7714 39.8956 21.3333 41.2522 21.3333 42.6667C21.3333 44.0812 20.7714 45.4377 19.7712 46.4379C18.771 47.4381 17.4145 48 16 48Z"
      />
    </symbol>
    <symbol id="libra" viewBox="0 0 64 64">
      <path
        d="M53.3333 42.6667V48H34.6667V42.4267C42.6667 40.96 47.8933 33.3333 46.4267 25.3333C44.96 17.3333 37.3333 12.1067 29.3333 13.5733C21.3333 15.0667 16.1067 22.6667 17.5733 30.6667C18.6667 36.64 23.36 41.3333 29.3333 42.4267V48H10.6667V42.6667H18.4533C16.4157 40.8061 14.7891 38.5404 13.6779 36.0148C12.5666 33.4892 11.9951 30.7593 12 28C12 22.6957 14.1071 17.6086 17.8579 13.8579C21.6086 10.1071 26.6957 8 32 8C37.3043 8 42.3914 10.1071 46.1421 13.8579C49.8929 17.6086 52 22.6957 52 28C52 33.5733 49.68 38.9067 45.5467 42.6667H53.3333ZM53.3333 50.6667H10.6667V56H53.3333V50.6667Z"
      />
    </symbol>
    <symbol id="pisces" viewBox="0 0 64 64">
      <path
        d="M53.3333 29.3333H48C48.2933 21.84 49.9467 14.4533 52.8267 7.52001L48 5.49335C44.8252 13.0617 43.0194 21.1337 42.6667 29.3333H21.3333C20.9867 21.12 19.1733 13.0667 16 5.49335L11.04 7.52001C13.9733 14.4267 15.6533 21.8133 16 29.3333H10.6667V34.6667H16C15.6936 42.166 14.0594 49.5515 11.1733 56.48L16 58.5067C19.1733 50.9334 20.9867 42.88 21.3333 34.6667H42.6667C43.0133 42.88 44.8267 50.9334 48 58.5067L52.96 56.48C50.0267 49.5734 48.3467 42.1867 48 34.6667H53.3333V29.3333Z"
      />
    </symbol>
    <symbol id="sagittarius" viewBox="0 0 64 64">
      <path
        d="M58.6667 5.33334V32H53.3333V14.4267L27.76 40L33.8933 46.1067L30.1067 49.8933L24 43.76L9.89333 57.8933L6.10666 54.1067L20.24 40L14.1067 33.8933L17.8933 30.1067L24 36.24L49.5733 10.6667H32V5.33334H58.6667Z"
      />
    </symbol>
    <symbol id="scorpio" viewBox="0 0 64 64">
      <path
        d="M47.2267 40.7733L43.44 44.56L46.9067 48H42.6667C41.2522 48 39.8956 47.4381 38.8954 46.4379C37.8952 45.4377 37.3333 44.0812 37.3333 42.6667V16C37.3333 13.8783 36.4905 11.8434 34.9902 10.3431C33.4899 8.84286 31.4551 8 29.3333 8C27.3333 8 25.4667 8.77333 24 10.08C22.5341 8.76647 20.635 8.04011 18.6667 8.04011C16.6983 8.04011 14.7993 8.76647 13.3333 10.08C11.8667 8.74667 9.97333 8 8 8V13.3333C8.70724 13.3333 9.38552 13.6143 9.88562 14.1144C10.3857 14.6145 10.6667 15.2928 10.6667 16V42.6667H16V16C16 15.2928 16.281 14.6145 16.781 14.1144C17.2811 13.6143 17.9594 13.3333 18.6667 13.3333C19.3739 13.3333 20.0522 13.6143 20.5523 14.1144C21.0524 14.6145 21.3333 15.2928 21.3333 16V42.6667H26.6667V16C26.6667 15.2928 26.9476 14.6145 27.4477 14.1144C27.9478 13.6143 28.6261 13.3333 29.3333 13.3333C30.0406 13.3333 30.7189 13.6143 31.219 14.1144C31.719 14.6145 32 15.2928 32 16V42.6667C32 45.4956 33.1238 48.2088 35.1242 50.2091C37.1246 52.2095 39.8377 53.3333 42.6667 53.3333H46.9067L43.44 56.7733L47.2267 60.56L57.0933 50.6667L47.2267 40.7733Z"
      />
    </symbol>
    <symbol id="taurus" viewBox="0 0 64 64">
      <path
        d="M41.5733 24C44.3422 22.3459 46.6352 20.0026 48.2288 17.1985C49.8225 14.3944 50.6624 11.2253 50.6667 8H45.3333C45.3333 11.5362 43.9286 14.9276 41.4281 17.4281C38.9276 19.9286 35.5362 21.3333 32 21.3333C28.4638 21.3333 25.0724 19.9286 22.5719 17.4281C20.0714 14.9276 18.6667 11.5362 18.6667 8H13.3333C13.3333 14.56 16.8 20.64 22.4267 24C13.5733 29.3333 10.6667 40.7467 16 49.6C21.2533 58.4533 32.72 61.3333 41.5733 56C50.4267 50.7733 53.3333 39.3067 48 30.4533C46.4324 27.7977 44.2225 25.5786 41.5733 24ZM32 53.3333C28.4638 53.3333 25.0724 51.9286 22.5719 49.4281C20.0714 46.9276 18.6667 43.5362 18.6667 40C18.6667 36.4638 20.0714 33.0724 22.5719 30.5719C25.0724 28.0714 28.4638 26.6667 32 26.6667C35.5362 26.6667 38.9276 28.0714 41.4281 30.5719C43.9286 33.0724 45.3333 36.4638 45.3333 40C45.3333 43.5362 43.9286 46.9276 41.4281 49.4281C38.9276 51.9286 35.5362 53.3333 32 53.3333Z"
      />
    </symbol>
    <symbol id="virgo" viewBox="0 0 64 64">
      <path
        d="M49.3333 51.0133C53.3333 47.3867 53.3333 40.48 53.3333 37.3333C53.3333 34.5044 52.2095 31.7912 50.2091 29.7909C48.2088 27.7905 45.4956 26.6667 42.6667 26.6667C40.8 26.6667 38.9333 27.2 37.3333 28.16V16C37.3333 13.8783 36.4905 11.8434 34.9902 10.3431C33.4899 8.84286 31.4551 8 29.3333 8C27.3333 8 25.4667 8.77333 24 10.08C22.5341 8.76647 20.635 8.04011 18.6667 8.04011C16.6983 8.04011 14.7993 8.76647 13.3333 10.08C11.8667 8.74667 9.97333 8 8 8V13.3333C8.70724 13.3333 9.38552 13.6143 9.88562 14.1144C10.3857 14.6145 10.6667 15.2928 10.6667 16V42.6667H16V16C16 15.2928 16.281 14.6145 16.781 14.1144C17.2811 13.6143 17.9594 13.3333 18.6667 13.3333C19.3739 13.3333 20.0522 13.6143 20.5523 14.1144C21.0524 14.6145 21.3333 15.2928 21.3333 16V42.6667H26.6667V16C26.6667 15.2928 26.9476 14.6145 27.4477 14.1144C27.9478 13.6143 28.6261 13.3333 29.3333 13.3333C30.0406 13.3333 30.7189 13.6143 31.219 14.1144C31.719 14.6145 32 15.2928 32 16V37.3333C32 40.48 32 47.3867 36 51.0133C33.92 52.1067 31.68 52.9067 29.3333 53.3333V58.6667C32.7733 58.6667 39.5733 55.3067 42.6667 53.68C45.76 55.3067 52.56 58.6667 56 58.6667V53.3333C53.6533 52.9067 51.4133 52.1067 49.3333 51.0133ZM42.6667 32C44.0812 32 45.4377 32.5619 46.4379 33.5621C47.4381 34.5623 48 35.9188 48 37.3333C48 45.12 46.56 48 42.6667 48C38.7733 48 37.3333 45.12 37.3333 37.3333C37.3333 35.9188 37.8952 34.5623 38.8954 33.5621C39.8956 32.5619 41.2522 32 42.6667 32Z"
      />
    </symbol>
    <linearGradient id="myGradient" x1="0%" y1="0%" x2="100%" y2="0%">
      <stop offset="0%" stop-color="blueviolet" />
      <stop offset="100%" stop-color="violet" />
    </linearGradient>
  </defs>
</svg>
