<svg
  width="64"
  height="64"
  viewBox="0 0 64 64"
  fill="none"
  xmlns="http://www.w3.org/2000/svg"
>
  <path
    d="M49.3333 51.0133C53.3333 47.3867 53.3333 40.48 53.3333 37.3333C53.3333 34.5044 52.2095 31.7912 50.2091 29.7909C48.2088 27.7905 45.4956 26.6667 42.6667 26.6667C40.8 26.6667 38.9333 27.2 37.3333 28.16V16C37.3333 13.8783 36.4905 11.8434 34.9902 10.3431C33.4899 8.84286 31.4551 8 29.3333 8C27.3333 8 25.4667 8.77333 24 10.08C22.5341 8.76647 20.635 8.04011 18.6667 8.04011C16.6983 8.04011 14.7993 8.76647 13.3333 10.08C11.8667 8.74667 9.97333 8 8 8V13.3333C8.70724 13.3333 9.38552 13.6143 9.88562 14.1144C10.3857 14.6145 10.6667 15.2928 10.6667 16V42.6667H16V16C16 15.2928 16.281 14.6145 16.781 14.1144C17.2811 13.6143 17.9594 13.3333 18.6667 13.3333C19.3739 13.3333 20.0522 13.6143 20.5523 14.1144C21.0524 14.6145 21.3333 15.2928 21.3333 16V42.6667H26.6667V16C26.6667 15.2928 26.9476 14.6145 27.4477 14.1144C27.9478 13.6143 28.6261 13.3333 29.3333 13.3333C30.0406 13.3333 30.7189 13.6143 31.219 14.1144C31.719 14.6145 32 15.2928 32 16V37.3333C32 40.48 32 47.3867 36 51.0133C33.92 52.1067 31.68 52.9067 29.3333 53.3333V58.6667C32.7733 58.6667 39.5733 55.3067 42.6667 53.68C45.76 55.3067 52.56 58.6667 56 58.6667V53.3333C53.6533 52.9067 51.4133 52.1067 49.3333 51.0133ZM42.6667 32C44.0812 32 45.4377 32.5619 46.4379 33.5621C47.4381 34.5623 48 35.9188 48 37.3333C48 45.12 46.56 48 42.6667 48C38.7733 48 37.3333 45.12 37.3333 37.3333C37.3333 35.9188 37.8952 34.5623 38.8954 33.5621C39.8956 32.5619 41.2522 32 42.6667 32Z"
    fill="#E6E6E6"
  />
</svg>
