<svg width="64" height="64" viewBox="0 0 64 64" fill="none" xmlns="http://www.w3.org/2000/svg">
<path d="M47.2267 40.7733L43.44 44.56L46.9067 48H42.6667C41.2522 48 39.8956 47.4381 38.8954 46.4379C37.8952 45.4377 37.3333 44.0812 37.3333 42.6667V16C37.3333 13.8783 36.4905 11.8434 34.9902 10.3431C33.4899 8.84286 31.4551 8 29.3333 8C27.3333 8 25.4667 8.77333 24 10.08C22.5341 8.76647 20.635 8.04011 18.6667 8.04011C16.6983 8.04011 14.7993 8.76647 13.3333 10.08C11.8667 8.74667 9.97333 8 8 8V13.3333C8.70724 13.3333 9.38552 13.6143 9.88562 14.1144C10.3857 14.6145 10.6667 15.2928 10.6667 16V42.6667H16V16C16 15.2928 16.281 14.6145 16.781 14.1144C17.2811 13.6143 17.9594 13.3333 18.6667 13.3333C19.3739 13.3333 20.0522 13.6143 20.5523 14.1144C21.0524 14.6145 21.3333 15.2928 21.3333 16V42.6667H26.6667V16C26.6667 15.2928 26.9476 14.6145 27.4477 14.1144C27.9478 13.6143 28.6261 13.3333 29.3333 13.3333C30.0406 13.3333 30.7189 13.6143 31.219 14.1144C31.719 14.6145 32 15.2928 32 16V42.6667C32 45.4956 33.1238 48.2088 35.1242 50.2091C37.1246 52.2095 39.8377 53.3333 42.6667 53.3333H46.9067L43.44 56.7733L47.2267 60.56L57.0933 50.6667L47.2267 40.7733Z" fill="#E6E6E6"/>
</svg>
