<svg width="64" height="64" viewBox="0 0 64 64" fill="none" xmlns="http://www.w3.org/2000/svg">
<path d="M40 34.6667C38.1333 34.6667 36.2933 35.1733 34.6667 36.1333V16C34.6667 13.8783 33.8238 11.8434 32.3235 10.3431C30.8232 8.84286 28.7884 8 26.6667 8C24.6667 8 22.8 8.77333 21.3333 10.08C19.8667 8.74667 17.9733 8 16 8V13.3333C16.7072 13.3333 17.3855 13.6143 17.8856 14.1144C18.3857 14.6145 18.6667 15.2928 18.6667 16V42.6667H24V16C24 15.2928 24.281 14.6145 24.781 14.1144C25.2811 13.6143 25.9594 13.3333 26.6667 13.3333C27.3739 13.3333 28.0522 13.6143 28.5523 14.1144C29.0524 14.6145 29.3333 15.2928 29.3333 16V45.3333C29.3333 46.7478 28.7714 48.1044 27.7712 49.1046C26.771 50.1048 25.4145 50.6667 24 50.6667V56C27.0667 56 30 54.6667 32 52.32C32.9163 53.3812 34.0342 54.25 35.2887 54.8761C36.5432 55.5021 37.9095 55.873 39.3084 55.9673C40.7073 56.0615 42.111 55.8773 43.4382 55.4251C44.7653 54.973 45.9896 54.262 47.04 53.3333C51.4933 49.5467 52 42.8 48.1067 38.3467C47.0991 37.1869 45.8534 36.2579 44.4545 35.6229C43.0556 34.9879 41.5363 34.6617 40 34.6667ZM40 50.6667C38.5855 50.6667 37.229 50.1048 36.2288 49.1046C35.2286 48.1044 34.6667 46.7478 34.6667 45.3333C34.6667 43.9188 35.2286 42.5623 36.2288 41.5621C37.229 40.5619 38.5855 40 40 40C41.4145 40 42.771 40.5619 43.7712 41.5621C44.7714 42.5623 45.3333 43.9188 45.3333 45.3333C45.3333 46.7478 44.7714 48.1044 43.7712 49.1046C42.771 50.1048 41.4145 50.6667 40 50.6667Z" fill="#E6E6E6"/>
</svg>
