<svg
  width="64"
  height="64"
  viewBox="0 0 64 64"
  fill="none"
  xmlns="http://www.w3.org/2000/svg"
>
  <path
    d="M42.6667 5.33334C39.8667 5.33334 37.0933 6.05334 34.6667 7.49334C33.7067 8.00001 32.8 8.69334 32 9.44001C31.2 8.69334 30.2933 8.00001 29.3333 7.49334C26.9067 6.05334 24.1333 5.33334 21.3333 5.33334C17.0899 5.33334 13.0202 7.01905 10.0196 10.0196C7.01904 13.0202 5.33333 17.0899 5.33333 21.3333C5.33333 25.5768 7.01904 29.6465 10.0196 32.6471C13.0202 35.6476 17.0899 37.3333 21.3333 37.3333V32C18.5044 32 15.7912 30.8762 13.7909 28.8758C11.7905 26.8754 10.6667 24.1623 10.6667 21.3333C10.6667 18.5044 11.7905 15.7913 13.7909 13.7909C15.7912 11.7905 18.5044 10.6667 21.3333 10.6667C22.847 10.6737 24.3421 11.0004 25.7208 11.6254C27.0994 12.2503 28.3305 13.1595 29.3333 14.2933V58.6667H34.6667V14.2933C34.88 14.0533 35.0933 13.8133 35.3333 13.6C36.35 12.6341 37.5472 11.8781 38.8564 11.3753C40.1656 10.8726 41.561 10.6329 42.9629 10.6701C44.3648 10.7072 45.7457 11.0205 47.0264 11.5918C48.3071 12.1632 49.4626 12.9816 50.4267 14C52.3713 16.0512 53.4216 18.7907 53.3466 21.6162C53.2716 24.4416 52.0774 27.1216 50.0267 29.0667C48 30.96 45.4133 32 42.6667 32V37.3333C46.9101 37.3333 50.9798 35.6476 53.9804 32.6471C56.981 29.6465 58.6667 25.5768 58.6667 21.3333C58.6667 17.0899 56.981 13.0202 53.9804 10.0196C50.9798 7.01905 46.9101 5.33334 42.6667 5.33334Z"
    fill="#E6E6E6"
  />
</svg>
