<svg
  width="64"
  height="64"
  viewBox="0 0 64 64"
  fill="none"
  xmlns="http://www.w3.org/2000/svg"
>
  <path
    d="M53.3333 42.6667V48H34.6667V42.4267C42.6667 40.96 47.8933 33.3333 46.4267 25.3333C44.96 17.3333 37.3333 12.1067 29.3333 13.5733C21.3333 15.0667 16.1067 22.6667 17.5733 30.6667C18.6667 36.64 23.36 41.3333 29.3333 42.4267V48H10.6667V42.6667H18.4533C16.4157 40.8061 14.7891 38.5404 13.6779 36.0148C12.5666 33.4892 11.9951 30.7593 12 28C12 22.6957 14.1071 17.6086 17.8579 13.8579C21.6086 10.1071 26.6957 8 32 8C37.3043 8 42.3914 10.1071 46.1421 13.8579C49.8929 17.6086 52 22.6957 52 28C52 33.5733 49.68 38.9067 45.5467 42.6667H53.3333ZM53.3333 50.6667H10.6667V56H53.3333V50.6667Z"
    fill="#E6E6E6"
  />
</svg>
