<svg
  width="64"
  height="64"
  viewBox="0 0 64 64"
  fill="none"
  xmlns="http://www.w3.org/2000/svg"
>
  <path
    d="M53.3333 45.3333C53.3333 47.4551 52.4905 49.4899 50.9902 50.9902C49.4899 52.4905 47.4551 53.3333 45.3333 53.3333C43.2456 53.2283 41.2713 52.3517 39.7931 50.8736C38.315 49.3954 37.4384 47.4211 37.3333 45.3333C37.76 41.04 38.6667 36.8 40 32.6933C41.44 28.1333 42.32 23.44 42.6667 18.6667C42.575 15.1594 41.1408 11.821 38.6599 9.34013C36.179 6.85925 32.8406 5.42505 29.3333 5.33334C25.826 5.42505 22.4877 6.85925 20.0068 9.34013C17.5259 11.821 16.0917 15.1594 16 18.6667C16.4 22.7467 17.3333 26.7467 18.6667 30.6667L19.2267 32.5333C13.6 30.7467 7.62667 33.8667 5.84001 39.4667C4.00001 45.0933 7.14667 51.0933 12.7733 52.88C18.4 54.6667 24.3733 51.5467 26.16 45.92C26.5067 44.88 26.6667 43.76 26.6667 42.6667C26.24 38.0533 25.3333 33.4933 23.76 29.12C22.5794 25.7324 21.7659 22.2279 21.3333 18.6667C21.4384 16.5789 22.315 14.6046 23.7931 13.1265C25.2713 11.6483 27.2456 10.7718 29.3333 10.6667C33.6533 10.88 37.12 14.3467 37.3333 18.6667C36.8999 22.9634 36.0059 27.2011 34.6667 31.3067C33.2267 35.8667 32.3467 40.56 32 45.3333C32.0917 48.8406 33.5259 52.179 36.0068 54.6599C38.4877 57.1408 41.826 58.575 45.3333 58.6667C48.8696 58.6667 52.2609 57.2619 54.7614 54.7614C57.2619 52.261 58.6667 48.8696 58.6667 45.3333H53.3333ZM16 48C14.5855 48 13.229 47.4381 12.2288 46.4379C11.2286 45.4377 10.6667 44.0812 10.6667 42.6667C10.6667 41.2522 11.2286 39.8956 12.2288 38.8954C13.229 37.8952 14.5855 37.3333 16 37.3333C17.4145 37.3333 18.771 37.8952 19.7712 38.8954C20.7714 39.8956 21.3333 41.2522 21.3333 42.6667C21.3333 44.0812 20.7714 45.4377 19.7712 46.4379C18.771 47.4381 17.4145 48 16 48Z"
    fill="#E6E6E6"
  />
</svg>
