<svg width="64" height="64" viewBox="0 0 64 64" fill="none" xmlns="http://www.w3.org/2000/svg">
<path d="M53.3333 29.3333H48C48.2933 21.84 49.9467 14.4533 52.8267 7.52001L48 5.49335C44.8252 13.0617 43.0194 21.1337 42.6667 29.3333H21.3333C20.9867 21.12 19.1733 13.0667 16 5.49335L11.04 7.52001C13.9733 14.4267 15.6533 21.8133 16 29.3333H10.6667V34.6667H16C15.6936 42.166 14.0594 49.5515 11.1733 56.48L16 58.5067C19.1733 50.9334 20.9867 42.88 21.3333 34.6667H42.6667C43.0133 42.88 44.8267 50.9334 48 58.5067L52.96 56.48C50.0267 49.5734 48.3467 42.1867 48 34.6667H53.3333V29.3333Z" fill="#E6E6E6"/>
</svg>
