<svg width="64" height="64" viewBox="0 0 64 64" fill="none" xmlns="http://www.w3.org/2000/svg">
<path d="M41.5733 24C44.3422 22.3459 46.6352 20.0026 48.2288 17.1985C49.8225 14.3944 50.6624 11.2253 50.6667 8H45.3333C45.3333 11.5362 43.9286 14.9276 41.4281 17.4281C38.9276 19.9286 35.5362 21.3333 32 21.3333C28.4638 21.3333 25.0724 19.9286 22.5719 17.4281C20.0714 14.9276 18.6667 11.5362 18.6667 8H13.3333C13.3333 14.56 16.8 20.64 22.4267 24C13.5733 29.3333 10.6667 40.7467 16 49.6C21.2533 58.4533 32.72 61.3333 41.5733 56C50.4267 50.7733 53.3333 39.3067 48 30.4533C46.4324 27.7977 44.2225 25.5786 41.5733 24ZM32 53.3333C28.4638 53.3333 25.0724 51.9286 22.5719 49.4281C20.0714 46.9276 18.6667 43.5362 18.6667 40C18.6667 36.4638 20.0714 33.0724 22.5719 30.5719C25.0724 28.0714 28.4638 26.6667 32 26.6667C35.5362 26.6667 38.9276 28.0714 41.4281 30.5719C43.9286 33.0724 45.3333 36.4638 45.3333 40C45.3333 43.5362 43.9286 46.9276 41.4281 49.4281C38.9276 51.9286 35.5362 53.3333 32 53.3333Z" fill="#E6E6E6"/>
</svg>
